<svg xmlns="http://www.w3.org/2000/svg" viewBox="0 0 1024 223"><title>Asset 34</title><g id="Layer_2" data-name="Layer 2"><g id="Avatar_keuze_compleet"><path d="M0,113.44C93.92,120.86,97.6,223,198.59,223c104.8,0,104.8-110,209.6-110S513,223,617.79,223s104.8-110,209.61-110C927.67,113,932,213.69,1024,222.39V0H0Z" style="fill:#f2b406"/><g style="opacity:0.5"><line x1="412.43" y1="66.59" x2="407.23" y2="82.71" style="fill:#f2b406;stroke:#fff;stroke-linecap:round;stroke-linejoin:round;stroke-width:4px;opacity:0.6000000000000001"/><line x1="417.89" y1="77.25" x2="401.77" y2="72.05" style="fill:#f2b406;stroke:#fff;stroke-linecap:round;stroke-linejoin:round;stroke-width:4px;opacity:0.6000000000000001"/><line x1="317.05" y1="99.28" x2="312.2" y2="114.32" style="fill:#f2b406;stroke:#fff;stroke-linecap:round;stroke-linejoin:round;stroke-width:4px;opacity:0.6000000000000001"/><line x1="322.15" y1="109.23" x2="307.1" y2="104.37" style="fill:#f2b406;stroke:#fff;stroke-linecap:round;stroke-linejoin:round;stroke-width:4px;opacity:0.6000000000000001"/><circle cx="366.34" cy="25.61" r="8.47" transform="translate(229.44 366.37) rotate(-72.11)" style="fill:none;stroke:#fff;stroke-linecap:round;stroke-linejoin:round;stroke-width:4px;opacity:0.6000000000000001"/><circle cx="364.31" cy="149.53" r="8.47" transform="translate(110.1 450.3) rotate(-72.11)" style="fill:none;stroke:#fff;stroke-linecap:round;stroke-linejoin:round;stroke-width:4px;opacity:0.6000000000000001"/><circle cx="435.48" cy="123.86" r="7.34" transform="translate(183.84 500.24) rotate(-72.11)" style="fill:none;stroke:#fff;stroke-linecap:round;stroke-linejoin:round;stroke-width:4px;opacity:0.6000000000000001"/><polygon points="355.49 72.53 349.95 84.05 362.87 82.97 355.49 72.53" style="fill:none;stroke:#fff;stroke-linecap:round;stroke-linejoin:round;stroke-width:4px;opacity:0.6000000000000001"/><line x1="490.29" y1="134.94" x2="507.11" y2="136.86" style="fill:#f2b406;stroke:#fff;stroke-linecap:round;stroke-linejoin:round;stroke-width:4px;opacity:0.6000000000000001"/><line x1="497.74" y1="144.31" x2="499.66" y2="127.48" style="fill:#f2b406;stroke:#fff;stroke-linecap:round;stroke-linejoin:round;stroke-width:4px;opacity:0.6000000000000001"/><circle cx="471.14" cy="73.66" r="7.34" transform="translate(344.53 533.41) rotate(-83.49)" style="fill:none;stroke:#fff;stroke-linecap:round;stroke-linejoin:round;stroke-width:4px;opacity:0.6000000000000001"/><polygon points="519.22 85.53 532 85.24 525.68 96.56 519.22 85.53" style="fill:none;stroke:#fff;stroke-linecap:round;stroke-linejoin:round;stroke-width:4px;opacity:0.6000000000000001"/><polygon points="435.42 22.61 445.98 15.4 446.85 28.34 435.42 22.61" style="fill:none;stroke:#fff;stroke-linecap:round;stroke-linejoin:round;stroke-width:4px;opacity:0.6000000000000001"/></g><g style="opacity:0.5"><line x1="620.67" y1="66.59" x2="625.87" y2="82.71" style="fill:#f2b406;stroke:#fff;stroke-linecap:round;stroke-linejoin:round;stroke-width:4px;opacity:0.6000000000000001"/><line x1="615.21" y1="77.25" x2="631.33" y2="72.05" style="fill:#f2b406;stroke:#fff;stroke-linecap:round;stroke-linejoin:round;stroke-width:4px;opacity:0.6000000000000001"/><line x1="716.05" y1="99.28" x2="720.91" y2="114.32" style="fill:#f2b406;stroke:#fff;stroke-linecap:round;stroke-linejoin:round;stroke-width:4px;opacity:0.6000000000000001"/><line x1="710.96" y1="109.23" x2="726" y2="104.37" style="fill:#f2b406;stroke:#fff;stroke-linecap:round;stroke-linejoin:round;stroke-width:4px;opacity:0.6000000000000001"/><circle cx="666.77" cy="25.61" r="8.47" transform="translate(24.37 206.04) rotate(-17.89)" style="fill:none;stroke:#fff;stroke-linecap:round;stroke-linejoin:round;stroke-width:4px;opacity:0.6000000000000001"/><circle cx="668.8" cy="149.53" r="8.47" transform="translate(-13.6 212.66) rotate(-17.89)" style="fill:none;stroke:#fff;stroke-linecap:round;stroke-linejoin:round;stroke-width:4px;opacity:0.6000000000000001"/><circle cx="597.63" cy="123.86" r="7.34" transform="translate(-9.15 189.56) rotate(-17.89)" style="fill:none;stroke:#fff;stroke-linecap:round;stroke-linejoin:round;stroke-width:4px;opacity:0.6000000000000001"/><polygon points="677.61 72.53 683.16 84.05 670.24 82.97 677.61 72.53" style="fill:none;stroke:#fff;stroke-linecap:round;stroke-linejoin:round;stroke-width:4px;opacity:0.6000000000000001"/><line x1="542.82" y1="134.94" x2="525.99" y2="136.86" style="fill:#f2b406;stroke:#fff;stroke-linecap:round;stroke-linejoin:round;stroke-width:4px;opacity:0.6000000000000001"/><line x1="535.36" y1="144.31" x2="533.44" y2="127.48" style="fill:#f2b406;stroke:#fff;stroke-linecap:round;stroke-linejoin:round;stroke-width:4px;opacity:0.6000000000000001"/><circle cx="561.96" cy="73.66" r="7.34" transform="translate(-4.73 64.2) rotate(-6.51)" style="fill:none;stroke:#fff;stroke-linecap:round;stroke-linejoin:round;stroke-width:4px;opacity:0.6000000000000001"/><polygon points="513.89 85.53 501.1 85.24 507.42 96.56 513.89 85.53" style="fill:none;stroke:#fff;stroke-linecap:round;stroke-linejoin:round;stroke-width:4px;opacity:0.6000000000000001"/><polygon points="597.68 22.61 587.12 15.4 586.25 28.34 597.68 22.61" style="fill:none;stroke:#fff;stroke-linecap:round;stroke-linejoin:round;stroke-width:4px;opacity:0.6000000000000001"/></g></g></g></svg>