<svg xmlns="http://www.w3.org/2000/svg" viewBox="0 0 994.4 371.37"><title>Asset 5</title><g id="Layer_2" data-name="Layer 2"><g id="familienaam"><g id="background"><polygon points="755.41 144.96 710.12 190.25 804.12 190.25 755.41 144.96" style="fill:#dd9f07"/><polygon points="755.41 169.74 710.12 215.03 804.12 215.03 755.41 169.74" style="fill:#dd9f07"/><polygon points="755.41 194.52 710.12 239.81 804.12 239.81 755.41 194.52" style="fill:#dd9f07"/><polygon points="755.41 219.3 710.12 264.59 804.12 264.59 755.41 219.3" style="fill:#dd9f07"/><polygon points="755.41 244.08 710.12 289.37 804.12 289.37 755.41 244.08" style="fill:#dd9f07"/><rect x="746.86" y="268.01" width="20.51" height="68.36" rx="10.25" ry="10.25" style="fill:#dd9f07"/><polygon points="711.12 112.37 658.12 165.37 768.12 165.37 711.12 112.37" style="fill:#f2b406"/><polygon points="711.12 141.37 658.12 194.37 768.12 194.37 711.12 141.37" style="fill:#f2b406"/><polygon points="711.12 170.37 658.12 223.37 768.12 223.37 711.12 170.37" style="fill:#f2b406"/><polygon points="711.12 199.37 658.12 252.37 768.12 252.37 711.12 199.37" style="fill:#f2b406"/><polygon points="711.12 228.37 658.12 281.37 768.12 281.37 711.12 228.37" style="fill:#f2b406"/><rect x="701.12" y="256.37" width="24" height="80" rx="12" ry="12" style="fill:#f2b406"/><polygon points="249.41 144.96 204.12 190.25 298.12 190.25 249.41 144.96" style="fill:#dd9f07"/><polygon points="249.41 169.74 204.12 215.03 298.12 215.03 249.41 169.74" style="fill:#dd9f07"/><polygon points="249.41 194.52 204.12 239.81 298.12 239.81 249.41 194.52" style="fill:#dd9f07"/><polygon points="249.41 219.3 204.12 264.59 298.12 264.59 249.41 219.3" style="fill:#dd9f07"/><polygon points="249.41 244.08 204.12 289.37 298.12 289.37 249.41 244.08" style="fill:#dd9f07"/><rect x="240.86" y="268.01" width="20.51" height="68.36" rx="10.25" ry="10.25" style="fill:#dd9f07"/><polygon points="284.12 112.37 231.12 165.37 341.12 165.37 284.12 112.37" style="fill:#f2b406"/><polygon points="284.12 141.37 231.12 194.37 341.12 194.37 284.12 141.37" style="fill:#f2b406"/><polygon points="284.12 170.37 231.12 223.37 341.12 223.37 284.12 170.37" style="fill:#f2b406"/><polygon points="284.12 199.37 231.12 252.37 341.12 252.37 284.12 199.37" style="fill:#f2b406"/><polygon points="284.12 228.37 231.12 281.37 341.12 281.37 284.12 228.37" style="fill:#f2b406"/><rect x="274.12" y="256.37" width="24" height="80" rx="12" ry="12" style="fill:#f2b406"/><line x1="307.12" y1="334.37" x2="710.12" y2="334.37" style="fill:none;stroke:#f2b406;stroke-linecap:round;stroke-linejoin:round;stroke-width:4px"/><path d="M650.12,198.87A150.5,150.5,0,1,0,434,334.37H565.18A150.51,150.51,0,0,0,650.12,198.87Z" style="fill:#f2b406"/><g style="opacity:0.46"><circle cx="144.42" cy="112.66" r="12.85" transform="translate(-24.8 42.57) rotate(-15.46)" style="fill:#f2b406"/><circle cx="163.02" cy="121.07" r="5.45" transform="translate(-26.38 47.84) rotate(-15.46)" style="fill:#f2b406"/><circle cx="165" cy="106.96" r="5.45" transform="translate(-22.54 47.85) rotate(-15.46)" style="fill:#f2b406"/><circle cx="156.89" cy="95.64" r="5.45" transform="translate(-19.82 45.28) rotate(-15.46)" style="fill:#f2b406"/><circle cx="222.22" cy="129.53" r="12.85" transform="translate(-26.49 63.92) rotate(-15.46)" style="fill:#f2b406"/><circle cx="240.83" cy="137.95" r="5.45" transform="translate(-28.06 69.19) rotate(-15.46)" style="fill:#f2b406"/><circle cx="242.8" cy="123.84" r="5.45" transform="translate(-24.23 69.2) rotate(-15.46)" style="fill:#f2b406"/><circle cx="234.7" cy="112.52" r="5.45" transform="translate(-21.5 66.63) rotate(-15.46)" style="fill:#f2b406"/><circle cx="249.47" cy="60.61" r="12.85" transform="translate(51.64 224.23) rotate(-53.25)" style="fill:#f2b406"/><circle cx="269.33" cy="55.86" r="5.45" transform="translate(63.43 238.24) rotate(-53.25)" style="fill:#f2b406"/><circle cx="262.25" cy="43.5" r="5.45" transform="translate(70.48 227.6) rotate(-53.25)" style="fill:#f2b406"/><circle cx="248.91" cy="39.52" r="5.45" transform="translate(68.31 215.31) rotate(-53.25)" style="fill:#f2b406"/><circle cx="326.81" cy="32.82" r="12.85" transform="translate(104.97 275.04) rotate(-53.25)" style="fill:#f2b406"/><circle cx="346.67" cy="28.07" r="5.45" transform="translate(116.75 289.04) rotate(-53.25)" style="fill:#f2b406"/><circle cx="339.58" cy="15.71" r="5.45" transform="translate(123.81 278.4) rotate(-53.25)" style="fill:#f2b406"/><circle cx="326.24" cy="11.73" r="5.45" transform="translate(121.64 266.11) rotate(-53.25)" style="fill:#f2b406"/><circle cx="12.85" cy="236.06" r="12.85" transform="matrix(0.78, -0.63, 0.63, 0.78, -145.82, 60.81)" style="fill:#f2b406"/><circle cx="16.8" cy="216.02" r="5.45" transform="translate(-132.32 58.83) rotate(-39.04)" style="fill:#f2b406"/><circle cx="29.44" cy="222.61" r="5.45" transform="translate(-133.64 68.25) rotate(-39.04)" style="fill:#f2b406"/><circle cx="33.95" cy="235.78" r="5.45" transform="translate(-140.93 74.04) rotate(-39.04)" style="fill:#f2b406"/><circle cx="44.29" cy="162.91" r="12.85" transform="translate(-92.73 64.28) rotate(-39.04)" style="fill:#f2b406"/><circle cx="48.24" cy="142.88" r="5.45" transform="translate(-79.22 62.29) rotate(-39.04)" style="fill:#f2b406"/><circle cx="60.88" cy="149.46" r="5.45" transform="translate(-80.55 71.72) rotate(-39.04)" style="fill:#f2b406"/><circle cx="65.39" cy="162.64" r="5.45" transform="translate(-87.84 77.51) rotate(-39.04)" style="fill:#f2b406"/><circle cx="116.23" cy="180.75" r="12.85" transform="translate(-3.92 2.58) rotate(-1.25)" style="fill:#f2b406"/><circle cx="131.63" cy="167.34" r="5.45" transform="translate(-3.63 2.92) rotate(-1.25)" style="fill:#f2b406"/><circle cx="137.58" cy="180.29" r="5.45" transform="translate(-3.91 3.05) rotate(-1.25)" style="fill:#f2b406"/><circle cx="133.07" cy="193.46" r="5.45" transform="translate(-4.2 2.95) rotate(-1.25)" style="fill:#f2b406"/></g><g style="opacity:0.46"><circle cx="812.05" cy="147.77" r="12.85" transform="translate(111.86 584.8) rotate(-42.28)" style="fill:#f2b406"/><circle cx="811.17" cy="127.37" r="5.45" transform="translate(125.36 578.9) rotate(-42.28)" style="fill:#f2b406"/><circle cx="797.69" cy="131.97" r="5.45" transform="translate(118.75 571.02) rotate(-42.28)" style="fill:#f2b406"/><circle cx="791.24" cy="144.31" r="5.45" transform="translate(108.77 569.9) rotate(-42.28)" style="fill:#f2b406"/><circle cx="792" cy="70.72" r="12.85" transform="translate(158.48 551.26) rotate(-42.28)" style="fill:#f2b406"/><circle cx="791.12" cy="50.32" r="5.45" transform="translate(171.98 545.36) rotate(-42.28)" style="fill:#f2b406"/><circle cx="777.64" cy="54.92" r="5.45" transform="translate(165.37 537.49) rotate(-42.28)" style="fill:#f2b406"/><circle cx="771.19" cy="67.26" r="5.45" transform="matrix(0.74, -0.67, 0.67, 0.74, 155.39, 536.36)" style="fill:#f2b406"/><circle cx="718.2" cy="77.5" r="12.85" transform="translate(518.04 771.59) rotate(-80.07)" style="fill:#f2b406"/><circle cx="705" cy="61.92" r="5.45" transform="translate(522.47 745.69) rotate(-80.07)" style="fill:#f2b406"/><circle cx="697.17" cy="73.82" r="5.45" transform="translate(504.26 747.82) rotate(-80.07)" style="fill:#f2b406"/><circle cx="699.63" cy="87.53" r="5.45" transform="translate(492.81 761.6) rotate(-80.07)" style="fill:#f2b406"/><circle cx="658.5" cy="21.03" r="12.85" transform="translate(524.27 666.04) rotate(-80.07)" style="fill:#f2b406"/><circle cx="645.3" cy="5.45" r="5.45" transform="translate(528.69 640.15) rotate(-80.07)" style="fill:#f2b406"/><circle cx="637.47" cy="17.35" r="5.45" transform="translate(510.49 642.28) rotate(-80.07)" style="fill:#f2b406"/><circle cx="639.94" cy="31.05" r="5.45" transform="translate(499.03 656.05) rotate(-80.07)" style="fill:#f2b406"/><circle cx="981.54" cy="209.49" r="12.85" transform="translate(389.03 1019.58) rotate(-65.87)" style="fill:#f2b406"/><circle cx="961.88" cy="215.01" r="5.45" transform="translate(372.38 1004.9) rotate(-65.87)" style="fill:#f2b406"/><circle cx="962.06" cy="200.76" r="5.45" transform="translate(385.48 996.64) rotate(-65.87)" style="fill:#f2b406"/><circle cx="971.78" cy="190.79" r="5.45" transform="translate(400.32 999.61) rotate(-65.87)" style="fill:#f2b406"/><circle cx="902.08" cy="214.44" r="12.85" transform="translate(337.54 949.99) rotate(-65.87)" style="fill:#f2b406"/><circle cx="882.42" cy="219.96" r="5.45" transform="translate(320.89 935.31) rotate(-65.87)" style="fill:#f2b406"/><circle cx="882.6" cy="205.71" r="5.45" transform="translate(333.99 927.05) rotate(-65.87)" style="fill:#f2b406"/><circle cx="892.32" cy="195.74" r="5.45" transform="translate(348.84 930.02) rotate(-65.87)" style="fill:#f2b406"/><circle cx="885.54" cy="142.19" r="12.85" transform="matrix(0.88, -0.47, 0.47, 0.88, 37.29, 433.51)" style="fill:#f2b406"/><circle cx="866.62" cy="134.5" r="5.45" transform="translate(38.68 423.7) rotate(-28.08)" style="fill:#f2b406"/><circle cx="875.49" cy="123.35" r="5.45" transform="translate(44.97 426.56) rotate(-28.08)" style="fill:#f2b406"/><circle cx="889.28" cy="121.43" r="5.45" transform="translate(47.5 432.82) rotate(-28.08)" style="fill:#f2b406"/></g><ellipse cx="374.62" cy="351.87" rx="48.5" ry="4.5" style="fill:#f2b406"/><ellipse cx="505.62" cy="366.87" rx="48.5" ry="4.5" style="fill:#f2b406"/><ellipse cx="630.62" cy="349.87" rx="48.5" ry="4.5" style="fill:#f2b406"/><line x1="503.12" y1="20.37" x2="503.12" y2="28.37" style="fill:none;stroke:#fff;stroke-linecap:round;stroke-linejoin:round;stroke-width:5px"/><line x1="517.12" y1="34.37" x2="509.12" y2="34.37" style="fill:none;stroke:#fff;stroke-linecap:round;stroke-linejoin:round;stroke-width:5px"/><line x1="503.12" y1="48.37" x2="503.12" y2="40.37" style="fill:none;stroke:#fff;stroke-linecap:round;stroke-linejoin:round;stroke-width:5px"/><line x1="489.12" y1="34.37" x2="497.12" y2="34.37" style="fill:none;stroke:#fff;stroke-linecap:round;stroke-linejoin:round;stroke-width:5px"/><line x1="321.62" y1="81.87" x2="321.62" y2="89.87" style="fill:none;stroke:#fff;stroke-linecap:round;stroke-linejoin:round;stroke-width:5px"/><line x1="335.62" y1="95.87" x2="327.62" y2="95.87" style="fill:none;stroke:#fff;stroke-linecap:round;stroke-linejoin:round;stroke-width:5px"/><line x1="321.62" y1="109.87" x2="321.62" y2="101.87" style="fill:none;stroke:#fff;stroke-linecap:round;stroke-linejoin:round;stroke-width:5px"/><line x1="307.62" y1="95.87" x2="315.62" y2="95.87" style="fill:none;stroke:#fff;stroke-linecap:round;stroke-linejoin:round;stroke-width:5px"/><line x1="662.62" y1="42.37" x2="662.62" y2="52.37" style="fill:none;stroke:#fff;stroke-linecap:round;stroke-linejoin:round;stroke-width:5px"/><line x1="680.12" y1="59.87" x2="670.12" y2="59.87" style="fill:none;stroke:#fff;stroke-linecap:round;stroke-linejoin:round;stroke-width:5px"/><line x1="662.62" y1="77.37" x2="662.62" y2="67.37" style="fill:none;stroke:#fff;stroke-linecap:round;stroke-linejoin:round;stroke-width:5px"/><line x1="645.12" y1="59.87" x2="655.12" y2="59.87" style="fill:none;stroke:#fff;stroke-linecap:round;stroke-linejoin:round;stroke-width:5px"/><line x1="420.62" y1="43.37" x2="420.62" y2="47.66" style="fill:none;stroke:#fff;stroke-linecap:round;stroke-linejoin:round;stroke-width:5px"/><line x1="428.12" y1="50.87" x2="423.83" y2="50.87" style="fill:none;stroke:#fff;stroke-linecap:round;stroke-linejoin:round;stroke-width:5px"/><line x1="420.62" y1="58.37" x2="420.62" y2="54.09" style="fill:none;stroke:#fff;stroke-linecap:round;stroke-linejoin:round;stroke-width:5px"/><line x1="413.12" y1="50.87" x2="417.4" y2="50.87" style="fill:none;stroke:#fff;stroke-linecap:round;stroke-linejoin:round;stroke-width:5px"/><line x1="568.62" y1="92.37" x2="568.62" y2="98.37" style="fill:none;stroke:#fff;stroke-linecap:round;stroke-linejoin:round;stroke-width:5px"/><line x1="579.12" y1="102.87" x2="573.12" y2="102.87" style="fill:none;stroke:#fff;stroke-linecap:round;stroke-linejoin:round;stroke-width:5px"/><line x1="568.62" y1="113.37" x2="568.62" y2="107.37" style="fill:none;stroke:#fff;stroke-linecap:round;stroke-linejoin:round;stroke-width:5px"/><line x1="558.12" y1="102.87" x2="564.12" y2="102.87" style="fill:none;stroke:#fff;stroke-linecap:round;stroke-linejoin:round;stroke-width:5px"/></g></g></g></svg>