<?xml version="1.0" encoding="utf-8"?>
<!-- Generator: Adobe Illustrator 21.0.0, SVG Export Plug-In . SVG Version: 6.00 Build 0)  -->
<!DOCTYPE svg PUBLIC "-//W3C//DTD SVG 1.1//EN" "http://www.w3.org/Graphics/SVG/1.1/DTD/svg11.dtd">
<svg version="1.1" id="Layer_1" xmlns="http://www.w3.org/2000/svg" xmlns:xlink="http://www.w3.org/1999/xlink" x="0px" y="0px"
	 viewBox="0 0 768 310" style="enable-background:new 0 0 768 310;" xml:space="preserve">
<style type="text/css">
	.st0{opacity:0.6;fill:none;stroke:#F2B406;stroke-width:3;stroke-linecap:round;stroke-linejoin:round;enable-background:new    ;}
	.st1{fill:#F2B406;}
	.st2{fill:#232323;}
	.st3{fill:#DD9F07;}
	.st4{font-family:'DINNextRoundedLTPro-Bold';}
	.st5{font-size:40px;}
</style>
<g id="color_intro">
	<ellipse transform="matrix(0.9516 -0.3072 0.3072 0.9516 13.8984 123.3284)" class="st0" cx="398.7" cy="17.5" rx="8.5" ry="8.5"/>
	<ellipse transform="matrix(0.9516 -0.3072 0.3072 0.9516 9.4794 146.4392)" class="st0" cx="469.9" cy="43.1" rx="7.3" ry="7.3"/>
	<line class="st0" x1="524.8" y1="32.1" x2="541.5" y2="30.1"/>
	<line class="st0" x1="532.1" y1="22.7" x2="534.1" y2="39.5"/>
	<ellipse transform="matrix(0.9936 -0.1134 0.1134 0.9936 -7.3297 57.9374)" class="st0" cx="505.6" cy="93.4" rx="7.3" ry="7.3"/>
	<polygon class="st0" points="553.6,81.5 566.5,81.8 560.1,70.4 	"/>
	
		<ellipse transform="matrix(0.3072 -0.9516 0.9516 0.3072 231.5478 353.0591)" class="st0" cx="358.3" cy="17.5" rx="8.5" ry="8.5"/>
	
		<ellipse transform="matrix(0.3072 -0.9516 0.9516 0.3072 157.7449 303.1564)" class="st0" cx="287.1" cy="43.2" rx="7.3" ry="7.3"/>
	<line class="st0" x1="232.2" y1="32.1" x2="215.4" y2="30.1"/>
	<line class="st0" x1="224.8" y1="22.7" x2="222.8" y2="39.5"/>
	
		<ellipse transform="matrix(0.1134 -0.9936 0.9936 0.1134 130.1528 332.5251)" class="st0" cx="251.4" cy="93.3" rx="7.3" ry="7.3"/>
	<polygon class="st0" points="203.3,81.5 190.5,81.8 196.8,70.4 	"/>
	<line class="st0" x1="668.1" y1="84.2" x2="673.3" y2="100.3"/>
	<line class="st0" x1="662.6" y1="94.8" x2="678.8" y2="89.7"/>
	<line class="st0" x1="763.5" y1="116.9" x2="768.3" y2="131.9"/>
	<line class="st0" x1="758.3" y1="126.8" x2="773.5" y2="122"/>
	<ellipse transform="matrix(0.9516 -0.3072 0.3072 0.9516 21.2617 221.4939)" class="st0" cx="714.2" cy="43.2" rx="8.5" ry="8.5"/>
	
		<ellipse transform="matrix(0.9516 -0.3072 0.3072 0.9516 -16.7039 228.0986)" class="st0" cx="716.2" cy="167.1" rx="8.5" ry="8.5"/>
	<ellipse transform="matrix(0.9516 -0.3072 0.3072 0.9516 -12.2516 204.9822)" class="st0" cx="645" cy="141.4" rx="7.3" ry="7.3"/>
	<polygon class="st0" points="725,90.1 730.5,101.7 717.6,100.6 	"/>
	<line class="st0" x1="590.2" y1="152.5" x2="573.5" y2="154.4"/>
	<line class="st0" x1="582.8" y1="161.9" x2="580.8" y2="145.1"/>
	<ellipse transform="matrix(0.9936 -0.1134 0.1134 0.9936 -6.4213 69.7063)" class="st0" cx="609.5" cy="91.3" rx="7.3" ry="7.3"/>
	<polygon class="st0" points="561.3,103.1 548.5,102.8 554.8,114.2 	"/>
	<polygon class="st0" points="645.1,40.2 634.5,33 633.8,45.9 	"/>
	<line class="st0" x1="99.8" y1="84.2" x2="94.6" y2="100.3"/>
	<line class="st0" x1="105.3" y1="94.8" x2="89.2" y2="89.7"/>
	<line class="st0" x1="4.4" y1="116.9" x2="-0.4" y2="131.9"/>
	<line class="st0" x1="9.5" y1="126.8" x2="-5.5" y2="122"/>
	<ellipse transform="matrix(0.3072 -0.9516 0.9516 0.3072 -3.8689 81.1595)" class="st0" cx="53.8" cy="43.2" rx="8.5" ry="8.5"/>
	
		<ellipse transform="matrix(0.3072 -0.9516 0.9516 0.3072 -123.2668 164.9557)" class="st0" cx="51.7" cy="167.1" rx="8.5" ry="8.5"/>
	<ellipse transform="matrix(0.3072 -0.9516 0.9516 0.3072 -49.38 215.0459)" class="st0" cx="123" cy="141.4" rx="7.3" ry="7.3"/>
	<polygon class="st0" points="42.9,90.1 37.3,101.7 50.3,100.6 	"/>
	<line class="st0" x1="177.7" y1="152.5" x2="194.5" y2="154.4"/>
	<line class="st0" x1="185.1" y1="161.9" x2="187.1" y2="145.1"/>
	<ellipse transform="matrix(0.1134 -0.9936 0.9936 0.1134 49.9083 238.589)" class="st0" cx="158.6" cy="91.3" rx="7.3" ry="7.3"/>
	<polygon class="st0" points="206.6,103.1 219.4,102.8 213.1,114.2 	"/>
	<polygon class="st0" points="122.8,40.2 133.4,33 134.2,45.9 	"/>
</g>
<ellipse class="st1" cx="383.5" cy="300.5" rx="53.5" ry="5.5"/>
<path class="st1" d="M503,148.6c0-65.7-53.3-119-119-119s-119,53.3-119,119c0,35.6,16,69.4,43.5,92h151
	C487.1,218,503.1,184.2,503,148.6z"/>
<g>
	
		<ellipse transform="matrix(0.9516 -0.3072 0.3072 0.9516 -23.6712 132.0134)" class="st0" cx="407.5" cy="141.2" rx="8.5" ry="8.5"/>
	<polygon class="st0" points="396.6,94.3 391.1,82.7 404,83.8 	"/>
	
		<ellipse transform="matrix(0.3072 -0.9516 0.9516 0.3072 116.9735 443.1682)" class="st0" cx="362.9" cy="141.2" rx="8.5" ry="8.5"/>
	<polygon class="st0" points="373.8,94.3 379.3,82.7 366.4,83.8 	"/>
	<path class="st2" d="M364.7,201.4h2c4,0,7.2,3.2,7.2,7.2v78.2c0,4-3.2,7.2-7.2,7.2h-2c-4,0-7.2-3.2-7.2-7.2v-78.2
		C357.5,204.6,360.7,201.4,364.7,201.4z"/>
	<path class="st2" d="M400.4,201.4h2c4,0,7.2,3.2,7.2,7.2v78.2c0,4-3.2,7.2-7.2,7.2h-2c-4,0-7.2-3.2-7.2-7.2v-78.2
		C393.1,204.6,396.4,201.4,400.4,201.4z"/>
	<path class="st2" d="M346.6,227.2c4.1,17.8,19,31,36.7,31s32.6-13.2,36.7-31C384.2,249.4,346.7,227.2,346.6,227.2z"/>
	<path class="st2" d="M411.6,189.8c1.4-3.9,2.1-8,2.1-12.2c0-18.2-13.6-33-30.5-33s-30.5,14.8-30.5,33c0,4.2,0.7,8.3,2.1,12.2
		c-6.2,7.7-9.6,17.3-9.6,27.3c0,3.4,0.4,6.8,1.1,10.1c0.1,0.1,37.7,22.2,73.5,0c0.8-3.3,1.2-6.7,1.1-10.1
		C421.2,207.2,417.9,197.5,411.6,189.8z"/>
	<path class="st2" d="M364.1,154.3L364.1,154.3c-3.2-3.2-8.4-3.2-11.7,0l-45.2,45.2c-1.6-2.8-5.2-3.7-8-2.1c-2.8,1.6-3.7,5.2-2.1,8
		c0.5,0.9,1.2,1.6,2.1,2.1l-0.6,0.6c-3.2,3.2-3.2,8.4,0,11.7l0,0c3.2,3.2,8.4,3.2,11.7,0l53.9-53.9
		C367.3,162.8,367.3,157.5,364.1,154.3z"/>
	<path class="st2" d="M469.4,208.2l-2.7-2.7c3-1.2,4.4-4.7,3.2-7.6c-1.2-3-4.7-4.4-7.6-3.2c-1.4,0.6-2.6,1.7-3.2,3.2l-43.6-43.6
		c-3.2-3.2-8.4-3.2-11.7,0l0,0c-3.2,3.2-3.2,8.4,0,11.7l53.9,53.9c3.2,3.2,8.4,3.2,11.7,0l0,0C472.6,216.6,472.6,211.4,469.4,208.2z
		"/>
	
		<rect x="310.9" y="173.3" transform="matrix(0.7071 -0.7071 0.7071 0.7071 -30.9987 290.7811)" class="st2" width="49.2" height="19"/>
	
		<rect x="422.9" y="158.2" transform="matrix(0.7071 -0.7071 0.7071 0.7071 -2.6318 359.2913)" class="st2" width="19" height="49.2"/>
	<path class="st2" d="M365,286.1c-9.2,0-16.6,7.4-16.7,16.6h33.4C381.7,293.5,374.2,286.1,365,286.1z"/>
	<path class="st2" d="M401.7,286.1c-9.2,0-16.6,7.4-16.7,16.6h33.4C418.4,293.5,410.9,286.1,401.7,286.1z"/>
	<path class="st2" d="M430.7,102.5l8.2-7c-12.4-30.5-47.1-45.2-77.6-32.8c-22.5,9.1-37.2,30.9-37.2,55.2c0,1.9,7.2,4.5,7.4,6.4
		s-6.7,3.2-6.3,5.1c6.3,32.3,37.5,53.4,69.8,47.1s53.4-37.5,47.1-69.8c-0.3-1.4-0.6-2.8-1-4.1L430.7,102.5z"/>
	<circle class="st2" cx="349.7" cy="97.2" r="7.7"/>
	<circle class="st2" cx="417.7" cy="97.2" r="7.7"/>
	<circle class="st2" cx="417.4" cy="97.7" r="4.4"/>
	<circle class="st2" cx="349.7" cy="97.7" r="4.4"/>
	<path class="st2" d="M376.8,123.5h13.3c5.1,0,9.2,4.1,9.2,9.2v2.6c0,5.1-4.1,9.2-9.2,9.2h-13.3c-5.1,0-9.2-4.1-9.2-9.2v-2.6
		C367.6,127.6,371.7,123.5,376.8,123.5z"/>
	<path class="st2" d="M390.6,122.5c0,2.7-3.4,6.9-7.7,6.9s-7.7-4.2-7.7-6.9s3.4-4.9,7.7-4.9S390.6,119.8,390.6,122.5z"/>
	<circle class="st2" cx="364.4" cy="124.4" r="4.9"/>
	<circle class="st2" cx="403.1" cy="124.5" r="4.9"/>
	<circle class="st2" cx="373.6" cy="111.1" r="7.8"/>
	<circle class="st2" cx="373.6" cy="111.1" r="5.8"/>
	<circle class="st2" cx="373.4" cy="111.3" r="2.1"/>
	<circle class="st2" cx="374.6" cy="110.1" r="1.2"/>
	<circle class="st2" cx="392.3" cy="111.1" r="7.8"/>
	<circle class="st2" cx="392.3" cy="111.1" r="5.8"/>
	<circle class="st2" cx="392.1" cy="111.3" r="2.1"/>
	<circle class="st2" cx="393.3" cy="110.1" r="1.2"/>
	<path class="st2" d="M392.6,131.2v1.3c0,0.4-0.3,0.7-0.7,0.7l0,0h-0.5c-0.4,0-0.7-0.3-0.7-0.7l0,0v-0.8l-1.3,0.2v1.5
		c0,0.4-0.3,0.7-0.7,0.7l0,0h-0.5c-0.4,0-0.7-0.3-0.7-0.7l0,0v-1.2c-1.1,0.1-2.1,0.2-3.1,0.2v1.4c0,0.4-0.3,0.7-0.7,0.7l0,0h-0.5
		c-0.4,0-0.7-0.3-0.7-0.7l0,0v-1.4c-1,0-1.9-0.1-2.7-0.2v1.3c0,0.4-0.3,0.7-0.7,0.7l0,0h-0.9c-0.4,0-0.7-0.3-0.7-0.7l0,0v-1.6
		l-1.1-0.2v0.7c0,0.4-0.3,0.7-0.7,0.7l0,0h-0.5c-0.4,0-0.7-0.3-0.7-0.7l0,0v-1.2c-0.7-0.2-1.3-0.4-1.9-0.6c-0.6-0.2-1.2,0.1-1.4,0.7
		c-0.1,0.2-0.1,0.5,0,0.7c0.9,2.6,2.7,4.9,5.1,6.3c1.4-1.1,4.1-1.9,7.2-1.9s6,0.8,7.3,2.1c2.6-1.7,4.5-4.2,5.4-7.2
		c0.1-0.4-0.1-0.8-0.5-0.9c-0.2,0-0.3,0-0.5,0C394.3,130.6,393.4,131,392.6,131.2z"/>
	<path class="st2" d="M376.2,138.3c2.1,1.2,4.5,1.8,6.9,1.9c2.7,0.2,5.3-0.4,7.6-1.7c-1.4-1.2-4.1-2.1-7.3-2.1
		S377.6,137.1,376.2,138.3z"/>
	<path class="st2" d="M375.7,132.7h-0.5c-0.4,0-0.7-0.3-0.7-0.7l0,0v0.3c0,0.4,0.3,0.7,0.7,0.7l0,0h0.5c0.4,0,0.7-0.3,0.7-0.7l0,0
		v-0.4C376.5,132.3,376.2,132.7,375.7,132.7C375.8,132.7,375.8,132.7,375.7,132.7z"/>
	<path class="st2" d="M375.2,132.7h0.6c0.4,0,0.7-0.3,0.7-0.7l0,0v-0.4c-0.7-0.2-1.4-0.3-2-0.5v0.8
		C374.5,132.4,374.8,132.7,375.2,132.7z"/>
	<path class="st2" d="M378.7,133.8h-0.5c-0.4,0-0.7-0.3-0.7-0.7l0,0v0.4c0,0.4,0.3,0.7,0.7,0.7l0,0h0.5c0.4,0,0.7-0.3,0.7-0.7l0,0
		v-0.4C379.5,133.5,379.2,133.8,378.7,133.8L378.7,133.8z"/>
	<path class="st2" d="M378.2,133.8h0.5c0.4,0,0.7-0.3,0.7-0.7l0,0v-0.9c-0.7-0.1-1.4-0.2-2-0.3v1.2
		C377.5,133.5,377.8,133.8,378.2,133.8L378.2,133.8z"/>
	<path class="st2" d="M383.5,134.2H383c-0.4,0-0.7-0.3-0.7-0.7l0,0v0.4c0,0.4,0.3,0.7,0.7,0.7l0,0h0.5c0.4,0,0.7-0.3,0.7-0.7l0,0
		v-0.4C384.2,133.8,383.9,134.2,383.5,134.2L383.5,134.2z"/>
	<path class="st2" d="M383,134.2h0.5c0.4,0,0.7-0.3,0.7-0.7l0,0v-1.1c-0.7,0-1.3,0-2,0v1.1C382.2,133.9,382.6,134.2,383,134.2z"/>
	<path class="st2" d="M388.6,133.8h-0.5c-0.4,0-0.7-0.3-0.7-0.7l0,0v0.4c0,0.4,0.3,0.7,0.7,0.7l0,0h0.5c0.4,0,0.7-0.3,0.7-0.7l0,0
		v-0.4C389.3,133.5,389,133.8,388.6,133.8L388.6,133.8z"/>
	<path class="st2" d="M391.8,132.9h-0.5c-0.4,0-0.7-0.3-0.7-0.7l0,0v0.4c0,0.4,0.3,0.7,0.7,0.7l0,0h0.5c0.4,0,0.7-0.3,0.7-0.7l0,0
		v-0.4C392.6,132.6,392.2,132.9,391.8,132.9L391.8,132.9z"/>
	<path class="st2" d="M391.3,132.9h0.5c0.4,0,0.7-0.3,0.7-0.7l0,0v-1c-0.7,0.2-1.3,0.3-2,0.5v0.5
		C390.6,132.5,390.9,132.9,391.3,132.9L391.3,132.9z"/>
	<path class="st2" d="M366.6,102.3h10.9c1.4,0,2.6,1.2,2.6,2.6v0.7c0,1.4-1.2,2.6-2.6,2.6h-10.9c-1.4,0-2.6-1.2-2.6-2.6v-0.7
		C364,103.4,365.2,102.3,366.6,102.3z"/>
	<path class="st2" d="M388.3,97.2h10.9c1.4,0,2.6,1.2,2.6,2.6v0.7c0,1.4-1.2,2.6-2.6,2.6h-10.9c-1.4,0-2.6-1.2-2.6-2.6v-0.7
		C385.7,98.3,386.9,97.2,388.3,97.2z"/>
	<text transform="matrix(1 0 0 1 372.03 129.4)" class="st3 st4 st5">+</text>
</g>
</svg>
